<svg width="585.717529296875px" height="233.60499877929686px" xmlns="http://www.w3.org/2000/svg" viewBox="-42.8587646484375 -41.80249938964843 585.717529296875 233.60499877929686" style="background: none;" preserveAspectRatio="xMidYMid"><defs><linearGradient id="editing-glowing-gradient" x1="0.3960441545911203" x2="0.6039558454088797" y1="0.010926199633097211" y2="0.9890738003669028"><stop offset="0" stop-color="none"></stop><stop offset="1" stop-color="none"></stop></linearGradient><filter id="editing-glowing" x="-100%" y="-100%" width="300%" height="300%"><feGaussianBlur in="SourceGraphic" result="blur" stdDeviation="1"></feGaussianBlur><feMerge><feMergeNode in="blur"></feMergeNode><feMergeNode in="SourceGraphic"></feMergeNode></feMerge></filter></defs><g filter="url(#editing-glowing)"><g transform="translate(42.11000919342041, 106.57999992370605)"><path d="M11.05-60.90L11.05-60.90L11.05-60.90Q13.75-60.90 15.62-59.07L15.62-59.07L15.62-59.07Q17.49-57.25 17.49-54.55L17.49-54.55L17.49-54.55Q17.49-51.85 15.62-50.03L15.62-50.03L15.62-50.03Q13.75-48.20 11.05-48.20L11.05-48.20L11.05-48.20Q8.44-48.20 6.61-50.03L6.61-50.03L6.61-50.03Q4.79-51.85 4.79-54.55L4.79-54.55L4.79-54.55Q4.79-57.25 6.61-59.07L6.61-59.07L6.61-59.07Q8.44-60.90 11.05-60.90ZM5.39-42.20L16.70-42.20L16.70 0L5.39 0L5.39-42.20ZM47.15 1.04L47.15 1.04L47.15 1.04Q37.15 1.04 31.54-5.00L31.54-5.00L31.54-5.00Q25.93-11.05 25.93-21.23L25.93-21.23L25.93-21.23Q25.93-31.32 31.80-37.32L31.80-37.32L31.80-37.32Q37.67-43.33 47.85-43.33L47.85-43.33L47.85-43.33Q58.38-43.33 64.16-37.11L64.16-37.11L64.16-37.11Q69.95-30.89 69.95-20.79L69.95-20.79L69.95-20.79Q69.95-10.70 63.68-4.83L63.68-4.83L63.68-4.83Q57.42 1.04 47.15 1.04ZM58.29-20.79L58.29-20.79L58.29-20.79Q58.29-26.80 55.64-30.23L55.64-30.23L55.64-30.23Q52.98-33.67 48.11-33.67L48.11-33.67L48.11-33.67Q43.15-33.67 40.37-30.62L40.37-30.62L40.37-30.62Q37.58-27.58 37.58-21.32L37.58-21.32L37.58-21.32Q37.58-15.05 39.98-11.83L39.98-11.83L39.98-11.83Q42.37-8.61 47.33-8.61L47.33-8.61L47.33-8.61Q52.20-8.61 55.25-11.53L55.25-11.53L55.25-11.53Q58.29-14.44 58.29-20.79ZM79.61-60.47L90.83-61.42L90.83-40.89L90.83-40.89Q93.35-42.28 96.18-43.07L96.18-43.07L96.18-43.07Q99.01-43.85 101.27-43.85L101.27-43.85L101.27-43.85Q110.58-43.85 115.54-37.41L115.54-37.41L115.54-37.41Q120.50-30.97 120.50-21.40L120.50-21.40L120.50-21.40Q120.50-11.83 115.41-5.39L115.41-5.39L115.41-5.39Q110.32 1.04 101.27 1.04L101.27 1.04L101.27 1.04Q98.31 1.04 94.66-0.17L94.66-0.17L94.66-0.17Q91.00-1.39 88.13-3.57L88.13-3.57L85.35 0L79.61 0L79.61-60.47ZM98.31-8.61L98.31-8.61L98.31-8.61Q104.14-8.61 106.49-12.83L106.49-12.83L106.49-12.83Q108.84-17.05 108.84-21.40L108.84-21.40L108.84-21.40Q108.84-26.36 106.75-30.28L106.75-30.28L106.75-30.28Q104.66-34.19 98.31-34.19L98.31-34.19L98.31-34.19Q96.48-34.19 94.53-33.54L94.53-33.54L94.53-33.54Q92.57-32.89 90.83-31.76L90.83-31.76L90.83-11.05L90.83-11.05Q92.57-10.01 94.53-9.31L94.53-9.31L94.53-9.31Q96.48-8.61 98.31-8.61ZM130.15-60.47L141.38-61.42L141.38-40.89L141.38-40.89Q143.90-42.28 146.73-43.07L146.73-43.07L146.73-43.07Q149.55-43.85 151.81-43.85L151.81-43.85L151.81-43.85Q161.12-43.85 166.08-37.41L166.08-37.41L166.08-37.41Q171.04-30.97 171.04-21.40L171.04-21.40L171.04-21.40Q171.04-11.83 165.95-5.39L165.95-5.39L165.95-5.39Q160.86 1.04 151.81 1.04L151.81 1.04L151.81 1.04Q148.86 1.04 145.20-0.17L145.20-0.17L145.20-0.17Q141.55-1.39 138.68-3.57L138.68-3.57L135.89 0L130.15 0L130.15-60.47ZM148.86-8.61L148.86-8.61L148.86-8.61Q154.69-8.61 157.03-12.83L157.03-12.83L157.03-12.83Q159.38-17.05 159.38-21.40L159.38-21.40L159.38-21.40Q159.38-26.36 157.30-30.28L157.30-30.28L157.30-30.28Q155.21-34.19 148.86-34.19L148.86-34.19L148.86-34.19Q147.03-34.19 145.07-33.54L145.07-33.54L145.07-33.54Q143.12-32.89 141.38-31.76L141.38-31.76L141.38-11.05L141.38-11.05Q143.12-10.01 145.07-9.31L145.07-9.31L145.07-9.31Q147.03-8.61 148.86-8.61ZM213.32 0L210.11-4.18L210.11-4.18Q207.23-1.48 203.06 0.13L203.06 0.13L203.06 0.13Q198.88 1.74 195.49 1.74L195.49 1.74L195.49 1.74Q186.88 1.74 183.27-3.35L183.27-3.35L183.27-3.35Q179.66-8.44 179.66-15.66L179.66-15.66L179.66-42.20L191.05-42.20L191.05-16.18L191.05-16.18Q191.05-12.18 192.97-10.05L192.97-10.05L192.97-10.05Q194.88-7.92 198.53-7.92L198.53-7.92L198.53-7.92Q200.80-7.92 203.32-9.05L203.32-9.05L203.32-9.05Q205.84-10.18 207.93-11.66L207.93-11.66L207.93-42.20L219.24-42.20L219.24 0L213.32 0ZM225.24-50.29L225.24-59.16L273.09-59.16L274.92-50.29L254.65-50.29L254.65 0L243.25 0L243.25-50.29L225.24-50.29ZM302.59 1.04L302.59 1.04L302.59 1.04Q291.62 1.04 285.32-4.96L285.32-4.96L285.32-4.96Q279.01-10.96 279.01-21.05L279.01-21.05L279.01-21.05Q279.01-31.15 284.71-37.24L284.71-37.24L284.71-37.24Q290.41-43.33 300.24-43.33L300.24-43.33L300.24-43.33Q310.16-43.33 314.81-36.76L314.81-36.76L314.81-36.76Q319.46-30.19 319.46-21.23L319.46-21.23L319.46-17.75L291.02-17.75L291.02-17.75Q291.80-13.57 294.84-11.09L294.84-11.09L294.84-11.09Q297.89-8.61 302.85-8.61L302.85-8.61L302.85-8.61Q305.72-8.61 308.02-9.35L308.02-9.35L308.02-9.35Q310.33-10.09 313.37-11.48L313.37-11.48L316.68-3.31L316.68-3.31Q313.72-1.04 309.50 0L309.50 0L309.50 0Q305.28 1.04 302.59 1.04ZM291.10-25.32L308.76-25.32L308.76-25.32Q307.89-29.58 305.63-31.62L305.63-31.62L305.63-31.62Q303.37-33.67 299.98-33.67L299.98-33.67L299.98-33.67Q296.50-33.67 294.15-31.54L294.15-31.54L294.15-31.54Q291.80-29.41 291.10-25.32L291.10-25.32ZM348.26-33.67L348.26-33.67L348.26-33.67Q343.48-33.67 340.78-30.06L340.78-30.06L340.78-30.06Q338.08-26.45 338.08-21.05L338.08-21.05L338.08-21.05Q338.08-15.57 340.78-12.09L340.78-12.09L340.78-12.09Q343.48-8.61 348.26-8.61L348.26-8.61L348.26-8.61Q351.22-8.61 353.61-9.35L353.61-9.35L353.61-9.35Q356.00-10.09 359.05-11.48L359.05-11.48L362.27-3.31L362.27-3.31Q359.31-1.04 355.09 0L355.09 0L355.09 0Q350.87 1.04 348.17 1.04L348.17 1.04L348.17 1.04Q337.91 1.04 332.17-4.96L332.17-4.96L332.17-4.96Q326.42-10.96 326.42-21.05L326.42-21.05L326.42-21.05Q326.42-31.15 332.17-37.24L332.17-37.24L332.17-37.24Q337.91-43.33 348.17-43.33L348.17-43.33L348.17-43.33Q350.87-43.33 355.00-42.20L355.00-42.20L355.00-42.20Q359.14-41.06 362.27-38.89L362.27-38.89L359.05-30.80L359.05-30.80Q356.00-32.19 353.61-32.93L353.61-32.93L353.61-32.93Q351.22-33.67 348.26-33.67ZM382.28-61.42L382.28-39.41L382.28-39.41Q385.06-41.59 388.67-42.72L388.67-42.72L388.67-42.72Q392.28-43.85 395.15-43.85L395.15-43.85L395.15-43.85Q403.77-43.85 407.38-38.80L407.38-38.80L407.38-38.80Q410.99-33.76 410.99-26.45L410.99-26.45L410.99 0L399.68 0L399.68-25.93L399.68-25.93Q399.68-29.93 397.76-32.06L397.76-32.06L397.76-32.06Q395.85-34.19 392.11-34.19L392.11-34.19L392.11-34.19Q389.67-34.19 387.06-32.93L387.06-32.93L387.06-32.93Q384.45-31.67 382.28-30.02L382.28-30.02L382.28 0L371.06 0L371.06-60.47L382.28-61.42Z" fill="url(#editing-glowing-gradient)"></path></g></g><style>text {
  font-size: 64px;
  font-family: Arial Black;
  dominant-baseline: central;
  text-anchor: middle;
}</style></svg>